<?xml version="1.0" encoding="UTF-8" standalone="no"?>
<svg
   xmlns:dc="http://purl.org/dc/elements/1.1/"
   xmlns:cc="http://creativecommons.org/ns#"
   xmlns:rdf="http://www.w3.org/1999/02/22-rdf-syntax-ns#"
   xmlns:svg="http://www.w3.org/2000/svg"
   xmlns="http://www.w3.org/2000/svg"
   width="1072"
   height="1066"
   viewBox="0 0 1072 1066"
   version="1.1"
   id="svg30">
  <metadata
     id="metadata36">
    <rdf:RDF>
      <cc:Work
         rdf:about="">
        <dc:format>image/svg+xml</dc:format>
        <dc:type
           rdf:resource="http://purl.org/dc/dcmitype/StillImage" />
        <dc:title></dc:title>
      </cc:Work>
    </rdf:RDF>
  </metadata>
  <defs
     id="defs34" />
  <path
     style="fill:none;stroke:#000000;stroke-width:1.26055px;stroke-linecap:butt;stroke-linejoin:miter;stroke-opacity:1"
     d="m 201.45032,1059.3321 c -13.76145,-19.9574 -28.116,-43.8093 -30.65206,-68.16167 -1.12369,-10.7902 0,-21.6879 0,-32.5318 0,-12.303 -0.53646,-22.3374 3.22654,-34.0809 8.18057,-25.52998 21.86641,-41.56503 37.10511,-63.51437 9.80335,-14.12042 0.36246,-1.0123 8.06633,-17.04043 8.66523,-18.02828 21.68454,-34.18777 32.26532,-51.12133 3.73617,-5.97939 9.51319,-17.9504 11.29287,-24.78609 1.0515,-4.03886 0.70484,-8.32229 1.61325,-12.39305 3.17517,-14.22836 13.37,-32.32545 16.13267,-46.47393 2.47981,-12.69985 0,-28.84958 0,-41.82653 0,-14.01338 2.06256,-29.51172 0,-43.37566 -1.5542,-10.44687 -29.91157,-19.08578 -38.71838,-21.68784 -24.41308,-7.21309 -52.85302,-6.99676 -77.43677,-1.54912 -3.18727,0.70628 -6.66018,0.34105 -9.6796,1.54912 -8.66409,3.46653 -16.73834,11.03779 -25.81225,13.94218 -2.1461,0.68693 -22.41132,2.53005 -24.19899,1.54913 -2.6412,-1.44925 -4.41808,-4.02531 -6.453059,-6.19652 -19.914865,-21.24794 -17.745933,-30.11783 -17.745933,-57.31784 0,-4.13102 -0.608404,-8.30355 0,-12.39305 2.21681,-14.90075 21.599902,-46.69777 30.652062,-58.86698 11.78305,-15.84048 25.84282,-32.89882 41.94491,-44.92479 4.95022,-3.69711 11.00925,-5.82204 16.13265,-9.29478 8.10082,-5.49091 14.7263,-12.7842 22.58573,-18.58957 11.68343,-8.62998 24.69137,-15.78682 37.10512,-23.23697 4.56015,-2.73679 8.09629,-6.98548 12.90613,-9.29479 3.04199,-1.46053 6.58337,-1.74684 9.67959,-3.09826 5.83231,-2.54566 11.39054,-7.7691 17.74593,-9.29479 3.13019,-0.75143 6.46257,0.23764 9.67959,0 3.79131,-0.28004 7.50002,-1.28898 11.29287,-1.54912 3.75471,-0.25753 7.77947,-1.29759 11.29285,0 4.90553,1.81173 26.56342,20.57148 33.87859,24.78609 22.65271,13.05129 56.47648,22.30281 82.27656,12.39305 13.88584,-5.33353 23.32795,-16.83723 33.87859,-26.33523 4.72407,-4.25274 10.37392,-7.61624 14.51939,-12.39304 4.01475,-4.62618 6.53748,-10.27977 9.6796,-15.49132 25.49569,-42.28729 21.58892,-92.10047 35.49184,-137.87265 5.50929,-18.13804 18.22117,-49.93727 33.87859,-61.96522 44.14108,-33.90902 139.04717,-18.45774 185.52558,1.54912 11.75072,5.05815 26.46386,14.10614 33.87859,24.7861 9.50773,13.69463 9.14628,24.4018 9.6796,40.27739 1.17805,35.06775 -8.09265,70.52653 -27.42552,100.69352 -10.36053,16.16655 -25.28485,31.03304 -38.71838,44.92479 -3.10491,3.21081 -6.89749,5.82183 -9.6796,9.29479 -14.67819,18.32307 -26.24205,49.71222 -3.22653,66.61263 5.35242,3.93031 11.8212,6.21314 17.74592,9.29478 36.70496,19.09146 78.37139,28.87917 119.38169,35.63001 60.69488,9.9912 103.93421,5.07213 125.83473,68.16177 7.73244,22.27509 7.6581,25.88663 9.67961,51.12131 2.17793,27.18759 5.79481,63.94504 -27.42553,75.90741 -19.10478,6.87949 -43.31327,4.6474 -62.91737,4.6474 -37.73079,0 -79.68802,-5.74122 -116.15515,6.19653 -12.51952,4.09834 -23.98849,10.77105 -35.49185,17.04043 -29.7044,16.18903 -40.04576,27.9959 -54.85104,57.31784 -4.09726,8.11465 -9.25556,15.98272 -11.29286,24.78611 -2.33603,10.09419 -1.13514,20.65237 -1.61327,30.98261 -0.59739,12.907 -1.33874,25.81121 -1.61327,38.72827 -0.56952,26.79687 -0.44198,60.96959 4.83979,86.75129 9.10206,44.4294 31.20081,90.03057 67.75719,119.28307"
     id="path44" />
</svg>
