<?xml version="1.0" encoding="UTF-8" standalone="no"?>
<svg
   xmlns:dc="http://purl.org/dc/elements/1.1/"
   xmlns:cc="http://creativecommons.org/ns#"
   xmlns:rdf="http://www.w3.org/1999/02/22-rdf-syntax-ns#"
   xmlns:svg="http://www.w3.org/2000/svg"
   xmlns="http://www.w3.org/2000/svg"
   width="1072"
   height="1066"
   viewBox="0 0 1072 1066"
   version="1.1"
   id="svg30">
  <metadata
     id="metadata36">
    <rdf:RDF>
      <cc:Work
         rdf:about="">
        <dc:format>image/svg+xml</dc:format>
        <dc:type
           rdf:resource="http://purl.org/dc/dcmitype/StillImage" />
        <dc:title></dc:title>
      </cc:Work>
    </rdf:RDF>
  </metadata>
  <defs
     id="defs34" />
  <path
     style="fill:none;stroke:#000000;stroke-width:1px;stroke-linecap:butt;stroke-linejoin:miter;stroke-opacity:1"
     d="m 504.15529,142.96941 c 6.3158,48.49478 -12.54117,98.2366 -12.54117,145.47765"
     id="path61" />
  <path
     style="fill:none;stroke:#000000;stroke-width:1px;stroke-linecap:butt;stroke-linejoin:miter;stroke-opacity:1"
     d="m 210.69176,120.39529 c -11.42631,30.4346 3.96906,57.73226 20.06589,82.77177 3.64507,5.67011 5.92307,12.21482 10.03294,17.55765 10.0556,13.07228 21.01113,18.50289 32.60706,30.09882 7.05034,7.05034 34.08112,40.13176 45.14823,40.13176"
     id="path63" />
  <path
     style="fill:none;stroke:#000000;stroke-width:1px;stroke-linecap:butt;stroke-linejoin:miter;stroke-opacity:1"
     d="m 840.25882,185.60941 c -6.68862,5.01647 -13.83508,9.47449 -20.06588,15.04941 -98.50433,88.13545 46.13327,-34.48386 -57.68941,55.18118 -16.20665,13.99665 -33.54496,26.62822 -50.16471,40.13176 -10.03293,8.15177 -28.06817,30.09883 -42.64,30.09883"
     id="path65" />
  <path
     style="fill:none;stroke:#000000;stroke-width:1px;stroke-linecap:butt;stroke-linejoin:miter;stroke-opacity:1"
     d="m 775.04471,431.41647 c 35.81867,1.85381 72.08549,-2.5549 107.85411,0 31.91868,2.27991 65.9025,7.75304 97.82118,10.03294"
     id="path67" />
  <path
     style="fill:none;stroke:#000000;stroke-width:1px;stroke-linecap:butt;stroke-linejoin:miter;stroke-opacity:1"
     d="M 180.59294,534.25412 C 162.29821,497.88551 125.59036,479.87066 92.804706,459.00706"
     id="path69" />
  <path
     style="fill:none;stroke:#000000;stroke-width:1px;stroke-linecap:butt;stroke-linejoin:miter;stroke-opacity:1"
     d="m 218.21647,679.73176 c -79.34905,17.63313 -25.69928,5.10065 -140.461176,35.1153 C 5.6514546,733.70499 28.749327,718.36742 0,739.92941"
     id="path71" />
  <path
     style="fill:none;stroke:#000000;stroke-width:1px;stroke-linecap:butt;stroke-linejoin:miter;stroke-opacity:1"
     d="m 890.42353,727.38823 c 4.18039,2.50824 9.09394,4.07747 12.54118,7.52471 7.57101,7.57101 12.49487,17.51134 20.06588,25.08235 39.6681,39.66811 90.23911,73.92128 125.41181,117.88706"
     id="path73" />
  <path
     style="fill:none;stroke:#000000;stroke-width:1px;stroke-linecap:butt;stroke-linejoin:miter;stroke-opacity:1"
     d="m 807.65176,963.16235 c 30.1557,44.63405 34.07347,100.75395 57.68942,147.98585"
     id="path75" />
  <path
     style="fill:none;stroke:#000000;stroke-width:1px;stroke-linecap:butt;stroke-linejoin:miter;stroke-opacity:1"
     d="m 223.23294,920.52235 c -32.23667,52.36195 -68.87563,102.98905 -107.85412,150.49415 -26.710191,32.553 -24.943787,19.7887 -45.148232,60.1976"
     id="path77" />
</svg>
